<?xml version="1.0" encoding="utf-8"?>
<!-- Generator: Adobe Illustrator 18.1.0, SVG Export Plug-In . SVG Version: 6.00 Build 0)  -->
<svg version="1.1" id="Layer_1" xmlns="http://www.w3.org/2000/svg" xmlns:xlink="http://www.w3.org/1999/xlink" x="0px" y="0px"
	 viewBox="1304 199.1 241.4 285.6" enable-background="new 1304 199.1 241.4 285.6" xml:space="preserve">
<g>
	<path fill="#FFFFFF" d="M1500.3,322.8c16.5,0,29.6-10.5,29.6-26.5c0-17-15.4-26.3-37.9-26.3h-19.5l50.5-57.3h-66.1v-13.7h86.4v11.2
		l-43.6,47.4c23.8,1.9,45.7,13.1,45.7,38.1c0,24.3-20.1,41-45.2,41L1500.3,322.8z"/>
</g>
<g>
	<path fill="#FFFFFF" d="M1394.3,394.2l-69.5,90.5h-17.1l78.2-100l-82-104h17.3l73.6,94.1l6.9,9.5L1394.3,394.2z"/>
</g>
<polygon fill="#FFFFFF" points="1482.4,280.7 1465.1,280.7 1408.8,353.4 1401.8,362.9 1409.3,372.7 1494.6,484.7 1511.7,484.7 
	1417.7,363.2 "/>
</svg>
